<svg xmlns="http://www.w3.org/2000/svg" xmlns:xlink="http://www.w3.org/1999/xlink" version="1.1" x="0px" y="0px" width="100px" height="100px" viewBox="0 0 100 100" enable-background="new 0 0 100 100" xml:space="preserve">
<g id="Captions">
</g>
<g id="Your_Icon">
	<path fill="#000000" d="M94,23H6c-2.75,0-5,2.25-5,5v46c0,2.75,2.25,5,5,5h88c2.75,0,5-2.25,5-5V28C99,25.25,96.75,23,94,23z    M76,29.156C76,28.534,76.534,28,77.156,28h5.687C83.466,28,84,28.534,84,29.156v7.687C84,37.466,83.466,38,82.844,38h-5.687   c-0.623,0-1.068-0.445-1.156-1.156V29.156z M87.844,40C88.466,40,89,40.534,89,41.156v7.687C89,49.466,88.466,50,87.844,50h-5.687   c-0.623,0-1.068-0.445-1.156-1.156v-7.687C81,40.534,81.534,40,82.156,40H87.844z M16,53.156C16,52.534,16.534,52,17.156,52h5.687   C23.466,52,24,52.534,24,53.156v7.687C24,61.466,23.466,62,22.844,62h-5.687c-0.623,0-1.068-0.445-1.156-1.156V53.156z M12.156,50   c-0.623,0-1.068-0.445-1.156-1.156v-7.687C11,40.534,11.534,40,12.156,40h5.687C18.466,40,19,40.534,19,41.156v7.687   C19,49.466,18.466,50,17.844,50H12.156z M22.156,50c-0.623,0-1.068-0.445-1.156-1.156v-7.687C21,40.534,21.534,40,22.156,40h5.687   C28.466,40,29,40.534,29,41.156v7.687C29,49.466,28.466,50,27.844,50H22.156z M26,53.156C26,52.534,26.534,52,27.156,52h5.687   C33.466,52,34,52.534,34,53.156v7.687C34,61.466,33.466,62,32.844,62h-5.687c-0.623,0-1.068-0.445-1.156-1.156V53.156z M32.156,50   c-0.623,0-1.068-0.445-1.156-1.156v-7.687C31,40.534,31.534,40,32.156,40h5.687C38.466,40,39,40.534,39,41.156v7.687   C39,49.466,38.466,50,37.844,50H32.156z M36,53.156C36,52.534,36.534,52,37.156,52h5.687C43.466,52,44,52.534,44,53.156v7.687   C44,61.466,43.466,62,42.844,62h-5.687c-0.623,0-1.068-0.445-1.156-1.156V53.156z M42.156,50c-0.623,0-1.068-0.445-1.156-1.156   v-7.687C41,40.534,41.534,40,42.156,40h5.687C48.466,40,49,40.534,49,41.156v7.687C49,49.466,48.466,50,47.844,50H42.156z    M46,53.156C46,52.534,46.534,52,47.156,52h5.687C53.466,52,54,52.534,54,53.156v7.687C54,61.466,53.466,62,52.844,62h-5.687   c-0.623,0-1.068-0.445-1.156-1.156V53.156z M52.156,50c-0.623,0-1.068-0.445-1.156-1.156v-7.687C51,40.534,51.534,40,52.156,40   h5.687C58.466,40,59,40.534,59,41.156v7.687C59,49.466,58.466,50,57.844,50H52.156z M56,53.156C56,52.534,56.534,52,57.156,52   h5.687C63.466,52,64,52.534,64,53.156v7.687C64,61.466,63.466,62,62.844,62h-5.687c-0.623,0-1.068-0.445-1.156-1.156V53.156z    M62.156,50c-0.623,0-1.068-0.445-1.156-1.156v-7.687C61,40.534,61.534,40,62.156,40h5.687C68.466,40,69,40.534,69,41.156v7.687   C69,49.466,68.466,50,67.844,50H62.156z M66,53.156C66,52.534,66.534,52,67.156,52h5.687C73.466,52,74,52.534,74,53.156v7.687   C74,61.466,73.466,62,72.844,62h-5.687c-0.623,0-1.068-0.445-1.156-1.156V53.156z M72.156,50c-0.623,0-1.068-0.445-1.156-1.156   v-7.687C71,40.534,71.534,40,72.156,40h5.687C78.466,40,79,40.534,79,41.156v7.687C79,49.466,78.466,50,77.844,50H72.156z    M66,29.156C66,28.534,66.534,28,67.156,28h5.687C73.466,28,74,28.534,74,29.156v7.687C74,37.466,73.466,38,72.844,38h-5.687   c-0.623,0-1.068-0.445-1.156-1.156V29.156z M56,29.156C56,28.534,56.534,28,57.156,28h5.687C63.466,28,64,28.534,64,29.156v7.687   C64,37.466,63.466,38,62.844,38h-5.687c-0.623,0-1.068-0.445-1.156-1.156V29.156z M46,29.156C46,28.534,46.534,28,47.156,28h5.687   C53.466,28,54,28.534,54,29.156v7.687C54,37.466,53.466,38,52.844,38h-5.687c-0.623,0-1.068-0.445-1.156-1.156V29.156z M36,29.156   C36,28.534,36.534,28,37.156,28h5.687C43.466,28,44,28.534,44,29.156v7.687C44,37.466,43.466,38,42.844,38h-5.687   c-0.623,0-1.068-0.445-1.156-1.156V29.156z M26,29.156C26,28.534,26.534,28,27.156,28h5.687C33.466,28,34,28.534,34,29.156v7.687   C34,37.466,33.466,38,32.844,38h-5.687c-0.623,0-1.068-0.445-1.156-1.156V29.156z M16,29.156C16,28.534,16.534,28,17.156,28h5.687   C23.466,28,24,28.534,24,29.156v7.687C24,37.466,23.466,38,22.844,38h-5.687c-0.623,0-1.068-0.445-1.156-1.156V29.156z M6,29.156   C6,28.534,6.534,28,7.156,28h5.687C13.466,28,14,28.534,14,29.156v7.687C14,37.466,13.466,38,12.844,38H7.156   C6.534,38,6.089,37.555,6,36.844V29.156z M6,53.156C6,52.534,6.534,52,7.156,52h5.687C13.466,52,14,52.534,14,53.156v7.687   C14,61.466,13.466,62,12.844,62H7.156C6.534,62,6.089,61.555,6,60.844V53.156z M20,72.844C20,73.466,19.466,74,18.844,74H7.156   C6.534,74,6.089,73.555,6,72.844v-7.687C6,64.534,6.534,64,7.156,64h11.687C19.466,64,20,64.534,20,65.156V72.844z M75,72.844   C75,73.466,74.466,74,73.844,74H23c-0.623,0-1-0.445-1-1.156v-7.687C22,64.534,22.377,64,23,64h50.844   C74.466,64,75,64.534,75,65.156V72.844z M76,60.844v-7.687C76,52.534,76.534,52,77.156,52h5.687C83.466,52,84,52.534,84,53.156   v7.687C84,61.466,83.466,62,82.844,62h-5.687C76.534,62,76.089,61.555,76,60.844z M94,72.844C94,73.466,93.466,74,92.844,74H78.156   c-0.623,0-1.068-0.445-1.156-1.156v-7.687C77,64.534,77.534,64,78.156,64h14.687C93.466,64,94,64.534,94,65.156V72.844z M94,60.844   C94,61.466,93.466,62,92.844,62h-5.687c-0.623,0-1.068-0.445-1.156-1.156v-7.687C86,52.534,86.534,52,87.156,52h5.687   C93.466,52,94,52.534,94,53.156V60.844z M94,36.844C94,37.466,93.466,38,92.844,38h-5.687c-0.623,0-1.068-0.445-1.156-1.156v-7.687   C86,28.534,86.534,28,87.156,28h5.687C93.466,28,94,28.534,94,29.156V36.844z"/>
</g>
</svg>