<svg xmlns="http://www.w3.org/2000/svg" xmlns:xlink="http://www.w3.org/1999/xlink" version="1.1" id="Layer_1" x="0px" y="0px" width="100px" height="100px" viewBox="0 0 100 100" enable-background="new 0 0 100 100" xml:space="preserve">
<path d="M91.592,75.572l-0.021-0.096c0,0-0.104,0.251-0.3,0.678l-0.659,1.35c-2.518,4.916-10.06,17.122-23.007,17.723H40.95V18.174  c0-12.059,8.954-13.086,11.192-13.155h0.541V2.194H6.358V5.02h0.502c2.238,0.068,11.191,1.096,11.191,13.155v77.052H6.358v2.822  h87.283V75.572H91.592z M16.641,5.02h24.11c-5.211,1.657-4.499,12.946-4.499,12.946v77.261H21.14V17.965  C21.14,17.965,21.853,6.677,16.641,5.02z M88.943,95.227H78.142c4.819-2.395,8.405-6.097,10.802-9.242V95.227z"/>
<polygon points="40.604,10.849 40.604,50.06 18.47,50.06 18.47,10.634 12.205,3.845 46.258,3.845 "/>
<rect x="18.267" y="55.055" width="22.134" height="2.923"/>
<rect x="18.267" y="63.085" width="22.134" height="2.923"/>
<rect x="18.267" y="71.116" width="22.134" height="2.924"/>
<rect x="18.267" y="79.147" width="20.568" height="2.924"/>
<rect x="18.267" y="87.178" width="22.134" height="2.923"/>
<rect x="81.074" y="90.217" width="11.013" height="2.923"/>
<rect x="69.861" y="12.056" transform="matrix(0.8301 0.5577 -0.5577 0.8301 23.9604 -40.7783)" width="18.057" height="13.737"/>
<polygon points="68.192,16.904 73.024,9.709 63.57,3.39 58.734,10.583 "/>
<path d="M61.435,4.922L57.89,2.541c-0.017-0.011-0.028-0.026-0.044-0.037c-0.017-0.011-0.034-0.017-0.051-0.027l-0.127-0.085  l-0.009,0.013c-0.835-0.432-1.877-0.186-2.412,0.61c-0.538,0.801-0.371,1.857,0.345,2.466l-0.008,0.012l0.114,0.076  c0.02,0.015,0.036,0.034,0.057,0.048c0.021,0.014,0.044,0.021,0.065,0.035l3.529,2.375L61.435,4.922z"/>
</svg>