<svg xmlns="http://www.w3.org/2000/svg" xmlns:xlink="http://www.w3.org/1999/xlink" version="1.1" id="Your_Icon" x="0px" y="0px" width="100px" height="100px" viewBox="0 0 100 100" enable-background="new 0 0 100 100" xml:space="preserve">
<g>
	<path d="M91.476,12.378H8.524C6.577,12.378,5,13.955,5,15.902v53.962c0,1.947,1.577,3.523,3.524,3.523h38.398v8.069H31.356   c-1.7,0-3.083,1.383-3.083,3.083c0,1.7,1.383,3.083,3.083,3.083h37.288c1.709,0,3.083-1.383,3.083-3.083   c0-1.7-1.374-3.083-3.083-3.083H53.087v-8.069h38.389c1.947,0,3.524-1.577,3.524-3.523V15.902   C95,13.955,93.423,12.378,91.476,12.378z M87.953,66.34H12.047V19.425h75.906V66.34z"/>
</g>
</svg>